<svg width="289" height="38" viewBox="0 0 289 38" fill="none" xmlns="http://www.w3.org/2000/svg">
<path d="M121.526 16.2934H118.86V31.7981H121.775V23.3325C121.775 21.8234 122.105 20.6864 122.767 19.9215C123.428 19.1359 124.359 18.7431 125.558 18.7431C126.715 18.7431 127.594 19.1256 128.193 19.8905C128.814 20.6347 129.124 21.7304 129.124 23.1775V31.7981H132.039V22.8053C132.039 21.3169 131.791 20.0765 131.294 19.0842C130.819 18.0919 130.137 17.3477 129.248 16.8515C128.38 16.3347 127.346 16.0763 126.147 16.0763C125.217 16.0763 124.369 16.252 123.604 16.6034C122.839 16.9549 122.209 17.451 121.712 18.0919L121.526 16.2934Z" fill="white"/>
<path d="M2.23268 16.2934V11.9521H5.17859V16.2934H9.05477V18.8982H5.17859V26.5266C5.17859 27.4775 5.36464 28.1494 5.73676 28.5422C6.12954 28.935 6.61536 29.1624 7.1942 29.2244C7.79372 29.2657 8.41391 29.2451 9.05477 29.1624V31.6741C8.20718 31.8602 7.36992 31.9119 6.543 31.8292C5.73676 31.7672 5.00286 31.5398 4.34133 31.147C3.70047 30.7542 3.18364 30.1857 2.79085 29.4415C2.41874 28.6766 2.23268 27.7049 2.23268 26.5266V18.8982H0V16.2934H2.23268Z" fill="white"/>
<path d="M41.2263 16.2934H43.8931L44.0792 18.0919C44.5753 17.451 45.2058 16.9549 45.9707 16.6034C46.7356 16.252 47.5832 16.0763 48.5135 16.0763C49.7126 16.0763 50.7462 16.3347 51.6145 16.8515C52.5034 17.3477 53.1856 18.0919 53.6611 19.0842C54.1572 20.0765 54.4053 21.3169 54.4053 22.8053V31.7981H51.4904V23.1775C51.4904 21.7304 51.1803 20.6347 50.5602 19.8905C49.9606 19.1256 49.082 18.7431 47.9244 18.7431C46.7253 18.7431 45.795 19.1359 45.1335 19.9215C44.472 20.6864 44.1412 21.8234 44.1412 23.3325V31.7981H41.2263V16.2934Z" fill="white"/>
<path d="M91.6721 16.2934H94.618V31.7981H91.6721V16.2934Z" fill="white"/>
<path d="M91.6721 16.2934H94.618V31.7981H91.6721V16.2934Z" fill="white"/>
<path d="M92.535 11.9522L94.618 9.86913L84.7489 0L74.8798 9.86913L76.9628 11.9522L83.2828 5.63217V31.7984H86.2287V5.64599L92.535 11.9522Z" fill="white"/>
<path d="M74.8798 16.2934H77.8257V31.7981H74.8798V16.2934Z" fill="white"/>
<path d="M74.8798 16.2934H77.8257V31.7981H74.8798V16.2934Z" fill="white"/>
<path d="M60.8276 26.8986C60.9723 27.5188 61.2203 28.0046 61.5718 28.356C61.9232 28.7075 62.3367 28.9659 62.8122 29.1313C63.3083 29.276 63.8251 29.3483 64.3626 29.3483C65.2929 29.3483 66.0165 29.1623 66.5333 28.7902C67.0501 28.4181 67.3085 27.9529 67.3085 27.3948C67.3085 26.9193 67.1432 26.5472 66.8124 26.2784C66.5023 25.989 66.0785 25.7616 65.541 25.5962C65.0242 25.4308 64.466 25.2758 63.8665 25.1311C63.329 24.9863 62.7398 24.821 62.0989 24.6349C61.4788 24.4488 60.8896 24.2008 60.3314 23.8907C59.7939 23.5599 59.3494 23.1465 58.998 22.6503C58.6466 22.1335 58.4708 21.4823 58.4708 20.6967C58.4708 19.7664 58.7189 18.9602 59.2151 18.278C59.7319 17.5751 60.4348 17.0376 61.3237 16.6655C62.2333 16.2727 63.2566 16.0763 64.3936 16.0763C65.7167 16.0763 66.8744 16.3657 67.8667 16.9446C68.8797 17.5027 69.6136 18.3503 70.0684 19.4873L67.4326 20.3556C67.2879 19.9628 67.0501 19.6424 66.7194 19.3943C66.3886 19.1462 66.0061 18.9808 65.572 18.8982C65.1585 18.7948 64.7451 18.7431 64.3316 18.7431C63.5461 18.7431 62.8949 18.8982 62.378 19.2082C61.8612 19.5183 61.6028 19.9731 61.6028 20.5727C61.6028 20.9034 61.6855 21.1825 61.8509 21.4099C62.0163 21.6167 62.2437 21.7924 62.5331 21.9371C62.8432 22.0611 63.2049 22.1748 63.6184 22.2782C64.0319 22.3815 64.4763 22.4953 64.9518 22.6193C65.572 22.8053 66.2025 23.0121 66.8434 23.2395C67.4843 23.4462 68.0734 23.715 68.6109 24.0457C69.1484 24.3765 69.5826 24.8106 69.9133 25.3481C70.2441 25.8856 70.4198 26.5472 70.4405 27.3327C70.4405 28.2423 70.1821 29.0486 69.6653 29.7515C69.1691 30.4544 68.4559 31.0125 67.5256 31.426C66.616 31.8188 65.5307 32.0152 64.2696 32.0152C62.7398 32.0152 61.4374 31.6741 60.3624 30.9918C59.2874 30.3096 58.5639 29.2553 58.1917 27.8289L60.8276 26.8986Z" fill="white"/>
<path d="M106.957 32.0152C105.489 32.0152 104.166 31.6947 102.987 31.0539C101.83 30.3923 100.92 29.4724 100.259 28.294C99.5971 27.095 99.2663 25.6892 99.2663 24.0767C99.2663 22.4436 99.6074 21.0275 100.29 19.8284C100.972 18.6294 101.902 17.7095 103.081 17.0686C104.259 16.4071 105.582 16.0763 107.05 16.0763C108.518 16.0763 109.841 16.4071 111.019 17.0686C112.218 17.7095 113.159 18.6294 113.841 19.8284C114.523 21.0068 114.864 22.4022 114.864 24.0147C114.864 25.6479 114.513 27.064 113.81 28.263C113.128 29.462 112.187 30.3923 110.988 31.0539C109.789 31.6947 108.445 32.0152 106.957 32.0152ZM106.926 29.3483C107.753 29.3483 108.528 29.1623 109.251 28.7902C109.975 28.3974 110.564 27.8082 111.019 27.0226C111.494 26.2371 111.732 25.2344 111.732 24.0147C111.732 22.8157 111.505 21.8337 111.05 21.0688C110.616 20.2832 110.037 19.7044 109.313 19.3323C108.59 18.9395 107.815 18.7431 106.988 18.7431C106.181 18.7431 105.427 18.9395 104.724 19.3323C104.042 19.7044 103.484 20.2832 103.049 21.0688C102.615 21.8544 102.398 22.857 102.398 24.0767C102.398 25.2758 102.605 26.2681 103.018 27.0536C103.453 27.8185 104.011 28.3974 104.693 28.7902C105.375 29.1623 106.119 29.3483 106.926 29.3483Z" fill="white"/>
<path d="M34.4156 31.7981L34.1676 29.5344C33.6921 30.32 33.0719 30.9298 32.307 31.364C31.5628 31.7774 30.5911 31.9842 29.3921 31.9842C28.2758 31.9842 27.3248 31.8084 26.5392 31.457C25.7537 31.0849 25.1438 30.5784 24.7097 29.9375C24.2962 29.276 24.0895 28.5111 24.0895 27.6428C24.0895 26.3404 24.5753 25.2654 25.5469 24.4178C26.5186 23.5496 27.9243 23.0121 29.7642 22.8053L34.1676 22.3092V21.0998C34.1676 20.4383 33.8988 19.8801 33.3613 19.4253C32.8238 18.9498 32.0486 18.7121 31.0356 18.7121C30.0846 18.7121 29.2784 18.9395 28.6169 19.3943C27.9553 19.8284 27.5109 20.4796 27.2835 21.3479L24.6787 20.4176C25.0714 19.0532 25.8363 17.9885 26.9734 17.2236C28.131 16.4587 29.5265 16.0763 31.1596 16.0763C33.1029 16.0763 34.581 16.5621 35.594 17.5337C36.607 18.5054 37.1135 19.7871 37.1135 21.3789V31.7981H34.4156ZM34.1676 24.6969L29.9193 25.2241C29.0096 25.3481 28.3274 25.6065 27.8726 25.9993C27.4178 26.3714 27.1904 26.8676 27.1904 27.4878C27.1904 28.0666 27.4075 28.5524 27.8416 28.9452C28.2964 29.3173 28.927 29.5034 29.7332 29.5034C30.7255 29.5034 31.5524 29.3173 32.214 28.9452C32.8755 28.5731 33.3613 28.0563 33.6714 27.3948C34.0022 26.7125 34.1676 25.927 34.1676 25.038V24.6969Z" fill="white"/>
<path d="M13.1676 16.2934H15.8344L16.0205 18.371C16.4546 17.8335 16.9508 17.3891 17.5089 17.0376C18.0878 16.6655 18.708 16.4071 19.3695 16.2624C20.0517 16.1177 20.7546 16.128 21.4781 16.2934V19.0532C20.7959 18.8878 20.1344 18.8672 19.4935 18.9912C18.8527 19.1153 18.2738 19.384 17.757 19.7975C17.2609 20.1902 16.8577 20.7174 16.5476 21.3789C16.2375 22.0405 16.0825 22.8364 16.0825 23.7667V31.7981H13.1676V16.2934Z" fill="white"/>
<path d="M156.407 18.441V9.47127H159.353V31.7981H156.686L156.469 29.4724C155.952 30.1753 155.25 30.7748 154.361 31.2709C153.492 31.7671 152.428 32.0152 151.167 32.0152C149.761 32.0152 148.531 31.6844 147.477 31.0229C146.443 30.3613 145.626 29.431 145.027 28.232C144.448 27.033 144.159 25.6376 144.159 24.0457C144.159 22.4539 144.448 21.0585 145.027 19.8595C145.626 18.6604 146.443 17.7301 147.477 17.0686C148.531 16.4071 149.761 16.0763 151.167 16.0763C152.51 16.0763 153.647 16.3554 154.578 16.9135C155.33 17.3386 155.94 17.8478 156.407 18.441ZM147.29 24.0457C147.29 25.6376 147.704 26.9193 148.531 27.8909C149.358 28.8625 150.464 29.3484 151.849 29.3484C152.696 29.3484 153.461 29.1416 154.144 28.7282C154.826 28.3147 155.374 27.7152 155.787 26.9296C156.201 26.1234 156.407 25.1621 156.407 24.0457C156.407 22.9294 156.201 21.9784 155.787 21.1929C155.374 20.4073 154.826 19.8078 154.144 19.3943C153.461 18.9602 152.696 18.7431 151.849 18.7431C150.484 18.7431 149.378 19.2289 148.531 20.2006C147.704 21.1722 147.29 22.4539 147.29 24.0457Z" fill="white"/>
<path d="M170.579 32.0152C169.091 32.0152 167.768 31.6741 166.61 30.9919C165.473 30.289 164.574 29.3277 163.912 28.108C163.271 26.8883 162.951 25.4928 162.951 23.9217C162.951 22.4126 163.271 21.0688 163.912 19.8905C164.553 18.7121 165.432 17.7818 166.548 17.0996C167.685 16.4174 168.967 16.0763 170.393 16.0763C171.84 16.0763 173.122 16.3967 174.238 17.0376C175.355 17.6578 176.223 18.5364 176.843 19.6734C177.463 20.7897 177.763 22.0818 177.742 23.5496C177.742 23.7977 177.732 24.0561 177.711 24.3248C177.691 24.5729 177.66 24.852 177.618 25.1621H166.145C166.207 25.989 166.434 26.7229 166.827 27.3637C167.24 27.9839 167.757 28.4697 168.377 28.8212C169.018 29.1726 169.742 29.3484 170.548 29.3484C171.582 29.3484 172.481 29.152 173.246 28.7592C174.011 28.3457 174.548 27.7979 174.858 27.1157L177.401 28.0149C176.781 29.276 175.871 30.258 174.672 30.9608C173.494 31.6637 172.13 32.0152 170.579 32.0152ZM174.548 22.6503C174.548 21.9061 174.362 21.2342 173.99 20.6347C173.618 20.0352 173.112 19.57 172.471 19.2393C171.85 18.8878 171.148 18.7121 170.362 18.7121C169.659 18.7121 169.008 18.8878 168.408 19.2393C167.83 19.57 167.333 20.0352 166.92 20.6347C166.527 21.2135 166.279 21.8854 166.176 22.6503H174.548Z" fill="white"/>
<path d="M183.137 26.8986C183.282 27.5188 183.53 28.0046 183.881 28.3561C184.233 28.7075 184.646 28.9659 185.122 29.1313C185.618 29.276 186.135 29.3484 186.672 29.3484C187.603 29.3484 188.326 29.1623 188.843 28.7902C189.36 28.4181 189.618 27.9529 189.618 27.3948C189.618 26.9193 189.453 26.5472 189.122 26.2784C188.812 25.989 188.388 25.7616 187.851 25.5962C187.334 25.4308 186.776 25.2758 186.176 25.1311C185.639 24.9864 185.049 24.821 184.409 24.6349C183.788 24.4489 183.199 24.2008 182.641 23.8907C182.104 23.5599 181.659 23.1465 181.308 22.6503C180.956 22.1335 180.781 21.4823 180.781 20.6967C180.781 19.7664 181.029 18.9602 181.525 18.278C182.042 17.5751 182.744 17.0376 183.633 16.6655C184.543 16.2727 185.566 16.0763 186.703 16.0763C188.026 16.0763 189.184 16.3657 190.176 16.9446C191.189 17.5027 191.923 18.3503 192.378 19.4873L189.742 20.3556C189.598 19.9628 189.36 19.6424 189.029 19.3943C188.698 19.1462 188.316 18.9808 187.882 18.8982C187.468 18.7948 187.055 18.7431 186.641 18.7431C185.856 18.7431 185.205 18.8982 184.688 19.2083C184.171 19.5183 183.912 19.9732 183.912 20.5727C183.912 20.9034 183.995 21.1825 184.161 21.4099C184.326 21.6167 184.553 21.7924 184.843 21.9371C185.153 22.0611 185.515 22.1748 185.928 22.2782C186.342 22.3816 186.786 22.4953 187.262 22.6193C187.882 22.8054 188.512 23.0121 189.153 23.2395C189.794 23.4462 190.383 23.715 190.921 24.0457C191.458 24.3765 191.892 24.8106 192.223 25.3481C192.554 25.8856 192.729 26.5472 192.75 27.3327C192.75 28.2423 192.492 29.0486 191.975 29.7515C191.479 30.4544 190.766 31.0125 189.835 31.426C188.926 31.8188 187.84 32.0152 186.579 32.0152C185.049 32.0152 183.747 31.6741 182.672 30.9919C181.597 30.3096 180.874 29.2553 180.501 27.8289L183.137 26.8986Z" fill="white"/>
<path d="M196.842 16.2934H199.788V31.7981H196.842V16.2934ZM198.331 13.5645C197.773 13.5645 197.308 13.3785 196.935 13.0064C196.563 12.6342 196.377 12.1794 196.377 11.6419C196.377 11.0838 196.563 10.6186 196.935 10.2465C197.308 9.85372 197.773 9.65733 198.331 9.65733C198.868 9.65733 199.323 9.85372 199.695 10.2465C200.088 10.6186 200.285 11.0838 200.285 11.6419C200.285 12.1794 200.088 12.6342 199.695 13.0064C199.323 13.3785 198.868 13.5645 198.331 13.5645Z" fill="white"/>
<path d="M216.381 16.2934H219.048V29.2553C219.048 31.0745 218.614 32.6354 217.745 33.9378C216.877 35.2402 215.626 36.2428 213.993 36.9457C212.381 37.6486 210.427 38 208.132 38L207.667 35.4262C210.437 35.3642 212.536 34.806 213.962 33.7517C215.298 32.7836 216.008 31.4074 216.093 29.6231C215.63 30.2051 215.034 30.7234 214.303 31.1779C213.394 31.7361 212.257 32.0152 210.892 32.0152C209.507 32.0152 208.277 31.6844 207.202 31.0229C206.148 30.3613 205.321 29.431 204.721 28.232C204.142 27.033 203.853 25.6376 203.853 24.0457C203.853 22.4539 204.142 21.0585 204.721 19.8595C205.321 18.6604 206.148 17.7301 207.202 17.0686C208.277 16.4071 209.507 16.0763 210.892 16.0763C211.74 16.0763 212.494 16.19 213.156 16.4174C213.838 16.6448 214.427 16.9549 214.923 17.3477C215.42 17.7198 215.833 18.1436 216.164 18.6191L216.381 16.2934ZM206.985 24.0457C206.985 25.6376 207.398 26.9193 208.225 27.8909C209.073 28.8625 210.2 29.3484 211.605 29.3484C212.432 29.3484 213.187 29.1416 213.869 28.7282C214.551 28.294 215.089 27.6842 215.482 26.8986C215.895 26.0924 216.102 25.1414 216.102 24.0457C216.102 22.9294 215.895 21.9784 215.482 21.1929C215.089 20.4073 214.541 19.8078 213.838 19.3943C213.156 18.9602 212.412 18.7431 211.605 18.7431C210.2 18.7431 209.073 19.2289 208.225 20.2006C207.398 21.1722 206.985 22.4539 206.985 24.0457Z" fill="white"/>
<path d="M223.545 16.2934H226.211L226.397 18.0919C226.894 17.451 227.524 16.9549 228.289 16.6035C229.054 16.252 229.901 16.0763 230.832 16.0763C232.031 16.0763 233.064 16.3347 233.933 16.8515C234.822 17.3477 235.504 18.0919 235.979 19.0842C236.475 20.0765 236.724 21.3169 236.724 22.8054V31.7981H233.809V23.1775C233.809 21.7304 233.499 20.6347 232.878 19.8905C232.279 19.1256 231.4 18.7431 230.243 18.7431C229.044 18.7431 228.113 19.1359 227.452 19.9215C226.79 20.6864 226.459 21.8234 226.459 23.3325V31.7981H223.545V16.2934Z" fill="white"/>
<path d="M249.773 9.47127H252.688V31.7981H249.773V9.47127Z" fill="white"/>
<path d="M266.667 31.7981L266.419 29.5344C265.944 30.32 265.323 30.9298 264.558 31.364C263.814 31.7774 262.843 31.9842 261.644 31.9842C260.527 31.9842 259.576 31.8084 258.791 31.457C258.005 31.0849 257.395 30.5784 256.961 29.9375C256.548 29.276 256.341 28.5111 256.341 27.6428C256.341 26.3404 256.827 25.2654 257.798 24.4178C258.77 23.5496 260.176 23.0121 262.016 22.8054L266.419 22.3092V21.0998C266.419 20.4383 266.15 19.8801 265.613 19.4253C265.075 18.9498 264.3 18.7121 263.287 18.7121C262.336 18.7121 261.53 18.9395 260.868 19.3943C260.207 19.8284 259.762 20.4796 259.535 21.3479L256.93 20.4176C257.323 19.0532 258.088 17.9885 259.225 17.2236C260.382 16.4587 261.778 16.0763 263.411 16.0763C265.354 16.0763 266.832 16.5621 267.845 17.5337C268.858 18.5054 269.365 19.7871 269.365 21.3789V31.7981H266.667ZM266.419 24.6969L262.171 25.2241C261.261 25.3481 260.579 25.6065 260.124 25.9993C259.669 26.3714 259.442 26.8676 259.442 27.4878C259.442 28.0666 259.659 28.5524 260.093 28.9452C260.548 29.3173 261.178 29.5034 261.985 29.5034C262.977 29.5034 263.804 29.3173 264.465 28.9452C265.127 28.5731 265.613 28.0563 265.923 27.3948C266.254 26.7125 266.419 25.927 266.419 25.038V24.6969Z" fill="white"/>
<path d="M276.554 18.4649C277.008 17.8614 277.607 17.3443 278.353 16.9135C279.304 16.3554 280.451 16.0763 281.795 16.0763C283.201 16.0763 284.431 16.4071 285.485 17.0686C286.539 17.7301 287.356 18.6604 287.935 19.8595C288.534 21.0585 288.834 22.4539 288.834 24.0457C288.834 25.6376 288.534 27.033 287.935 28.232C287.335 29.431 286.508 30.3613 285.454 31.0229C284.4 31.6844 283.18 32.0152 281.795 32.0152C280.534 32.0152 279.459 31.7671 278.57 31.2709C277.702 30.7748 277.019 30.1753 276.523 29.4724L276.306 31.7981H273.639V9.47127H276.554V18.4649ZM285.671 24.0457C285.671 22.4539 285.247 21.1722 284.4 20.2006C283.573 19.2289 282.487 18.7431 281.144 18.7431C280.275 18.7431 279.5 18.9602 278.818 19.3943C278.136 19.8078 277.588 20.4073 277.174 21.1929C276.761 21.9784 276.554 22.9294 276.554 24.0457C276.554 25.1621 276.761 26.1234 277.174 26.9296C277.588 27.7152 278.136 28.3147 278.818 28.7282C279.5 29.1416 280.275 29.3484 281.144 29.3484C282.487 29.3484 283.573 28.8625 284.4 27.8909C285.247 26.9193 285.671 25.6376 285.671 24.0457Z" fill="white"/>
</svg>
