<svg class="logo-svg" width="289" height="38" viewBox="0 0 289 38" fill="#ffffff" xmlns="http://www.w3.org/2000/svg">
<path d="M216.381 16.293H219.048V29.255C219.048 31.075 218.614 32.635 217.745 33.938C216.877 35.24 215.626 36.243 213.993 36.946C212.381 37.649 210.427 38 208.132 38L207.667 35.426C210.437 35.364 212.536 34.806 213.962 33.752C215.298 32.784 216.008 31.407 216.093 29.623C215.63 30.205 215.034 30.723 214.303 31.178C213.394 31.736 212.257 32.015 210.892 32.015C209.507 32.015 208.277 31.684 207.202 31.023C206.148 30.361 205.321 29.431 204.721 28.232C204.142 27.033 203.853 25.638 203.853 24.046C203.853 22.454 204.142 21.058 204.721 19.859C205.321 18.66 206.148 17.73 207.202 17.069C208.277 16.407 209.507 16.076 210.892 16.076C211.74 16.076 212.494 16.19 213.156 16.417C213.838 16.645 214.427 16.955 214.923 17.348C215.42 17.72 215.833 18.144 216.164 18.619L216.381 16.293ZM276.554 18.465C277.008 17.861 277.607 17.344 278.353 16.913C279.304 16.355 280.451 16.076 281.795 16.076C283.201 16.076 284.431 16.407 285.485 17.069C286.539 17.73 287.356 18.66 287.935 19.859C288.534 21.058 288.834 22.454 288.834 24.046C288.834 25.638 288.534 27.033 287.935 28.232C287.335 29.431 286.508 30.361 285.454 31.023C284.4 31.684 283.18 32.015 281.795 32.015C280.534 32.015 279.459 31.767 278.57 31.271C277.702 30.775 277.019 30.175 276.523 29.472L276.306 31.798H273.639V9.471H276.554V18.465ZM60.828 26.899C60.972 27.519 61.22 28.005 61.572 28.356C61.923 28.707 62.337 28.966 62.812 29.131C63.308 29.276 63.825 29.348 64.363 29.348C65.293 29.348 66.016 29.162 66.533 28.79C67.05 28.418 67.308 27.953 67.308 27.395C67.308 26.919 67.143 26.547 66.812 26.278C66.502 25.989 66.078 25.762 65.541 25.596C65.024 25.431 64.466 25.276 63.866 25.131C63.329 24.986 62.74 24.821 62.099 24.635C61.479 24.449 60.89 24.201 60.331 23.891C59.794 23.56 59.349 23.146 58.998 22.65C58.647 22.133 58.471 21.482 58.471 20.697C58.471 19.766 58.719 18.96 59.215 18.278C59.732 17.575 60.435 17.038 61.324 16.665C62.233 16.273 63.257 16.076 64.394 16.076C65.717 16.076 66.874 16.366 67.867 16.945C68.88 17.503 69.614 18.35 70.068 19.487L67.433 20.356C67.288 19.963 67.05 19.642 66.719 19.394C66.389 19.146 66.006 18.981 65.572 18.898C65.158 18.795 64.745 18.743 64.332 18.743C63.546 18.743 62.895 18.898 62.378 19.208C61.861 19.518 61.603 19.973 61.603 20.573C61.603 20.903 61.685 21.182 61.851 21.41C62.016 21.617 62.244 21.792 62.533 21.937C62.843 22.061 63.205 22.175 63.618 22.278C64.032 22.381 64.476 22.495 64.952 22.619C65.572 22.805 66.202 23.012 66.843 23.239C67.484 23.446 68.073 23.715 68.611 24.046C69.148 24.376 69.583 24.811 69.913 25.348C70.244 25.886 70.42 26.547 70.44 27.333C70.44 28.242 70.182 29.049 69.665 29.751C69.169 30.454 68.456 31.012 67.526 31.426C66.616 31.819 65.531 32.015 64.27 32.015C62.74 32.015 61.437 31.674 60.362 30.992C59.287 30.31 58.564 29.255 58.192 27.829L60.828 26.899ZM170.579 32.015C169.091 32.015 167.768 31.674 166.61 30.992C165.473 30.289 164.574 29.328 163.912 28.108C163.271 26.888 162.951 25.493 162.951 23.922C162.951 22.413 163.271 21.069 163.912 19.89C164.553 18.712 165.432 17.782 166.548 17.1C167.685 16.417 168.967 16.076 170.393 16.076C171.84 16.076 173.122 16.397 174.238 17.038C175.355 17.658 176.223 18.536 176.843 19.673C177.463 20.79 177.763 22.082 177.742 23.55C177.742 23.798 177.732 24.056 177.711 24.325C177.691 24.573 177.66 24.852 177.618 25.162H166.145C166.207 25.989 166.434 26.723 166.827 27.364C167.24 27.984 167.757 28.47 168.377 28.821C169.018 29.173 169.742 29.348 170.548 29.348C171.582 29.348 172.481 29.152 173.246 28.759C174.011 28.346 174.548 27.798 174.858 27.116L177.401 28.015C176.781 29.276 175.871 30.258 174.672 30.961C173.494 31.664 172.13 32.015 170.579 32.015ZM106.957 32.015C105.489 32.015 104.166 31.695 102.987 31.054C101.83 30.392 100.92 29.472 100.259 28.294C99.597 27.095 99.266 25.689 99.266 24.077C99.266 22.444 99.607 21.027 100.29 19.828C100.972 18.629 101.902 17.709 103.081 17.069C104.259 16.407 105.582 16.076 107.05 16.076C108.518 16.076 109.841 16.407 111.019 17.069C112.218 17.709 113.159 18.629 113.841 19.828C114.523 21.007 114.864 22.402 114.864 24.015C114.864 25.648 114.513 27.064 113.81 28.263C113.128 29.462 112.187 30.392 110.988 31.054C109.789 31.695 108.445 32.015 106.957 32.015ZM156.407 18.441V9.471H159.353V31.798H156.686L156.469 29.472C155.952 30.175 155.25 30.775 154.361 31.271C153.492 31.767 152.428 32.015 151.167 32.015C149.761 32.015 148.531 31.684 147.477 31.023C146.443 30.361 145.626 29.431 145.027 28.232C144.448 27.033 144.159 25.638 144.159 24.046C144.159 22.454 144.448 21.058 145.027 19.859C145.626 18.66 146.443 17.73 147.477 17.069C148.531 16.407 149.761 16.076 151.167 16.076C152.51 16.076 153.647 16.355 154.578 16.913C155.33 17.339 155.94 17.848 156.407 18.441ZM183.137 26.899C183.282 27.519 183.53 28.005 183.881 28.356C184.233 28.707 184.646 28.966 185.122 29.131C185.618 29.276 186.135 29.348 186.672 29.348C187.603 29.348 188.326 29.162 188.843 28.79C189.36 28.418 189.618 27.953 189.618 27.395C189.618 26.919 189.453 26.547 189.122 26.278C188.812 25.989 188.388 25.762 187.851 25.596C187.334 25.431 186.776 25.276 186.176 25.131C185.639 24.986 185.049 24.821 184.409 24.635C183.788 24.449 183.199 24.201 182.641 23.891C182.104 23.56 181.659 23.146 181.308 22.65C180.956 22.133 180.781 21.482 180.781 20.697C180.781 19.766 181.029 18.96 181.525 18.278C182.042 17.575 182.744 17.038 183.633 16.665C184.543 16.273 185.566 16.076 186.703 16.076C188.026 16.076 189.184 16.366 190.176 16.945C191.189 17.503 191.923 18.35 192.378 19.487L189.742 20.356C189.598 19.963 189.36 19.642 189.029 19.394C188.698 19.146 188.316 18.981 187.882 18.898C187.468 18.795 187.055 18.743 186.641 18.743C185.856 18.743 185.205 18.898 184.688 19.208C184.171 19.518 183.912 19.973 183.912 20.573C183.912 20.903 183.995 21.182 184.161 21.41C184.326 21.617 184.553 21.792 184.843 21.937C185.153 22.061 185.515 22.175 185.928 22.278C186.342 22.382 186.786 22.495 187.262 22.619C187.882 22.805 188.512 23.012 189.153 23.239C189.794 23.446 190.383 23.715 190.921 24.046C191.458 24.376 191.892 24.811 192.223 25.348C192.554 25.886 192.729 26.547 192.75 27.333C192.75 28.242 192.492 29.049 191.975 29.751C191.479 30.454 190.766 31.012 189.835 31.426C188.926 31.819 187.84 32.015 186.579 32.015C185.049 32.015 183.747 31.674 182.672 30.992C181.597 30.31 180.874 29.255 180.501 27.829L183.137 26.899ZM266.667 31.798L266.419 29.534C265.944 30.32 265.323 30.93 264.558 31.364C263.814 31.777 262.843 31.984 261.644 31.984C260.527 31.984 259.576 31.808 258.791 31.457C258.005 31.085 257.395 30.578 256.961 29.937C256.548 29.276 256.341 28.511 256.341 27.643C256.341 26.34 256.827 25.265 257.798 24.418C258.77 23.55 260.176 23.012 262.016 22.805L266.419 22.309V21.1C266.419 20.438 266.15 19.88 265.613 19.425C265.075 18.95 264.3 18.712 263.287 18.712C262.336 18.712 261.53 18.939 260.868 19.394C260.207 19.828 259.762 20.48 259.535 21.348L256.93 20.418C257.323 19.053 258.088 17.988 259.225 17.224C260.382 16.459 261.778 16.076 263.411 16.076C265.354 16.076 266.832 16.562 267.845 17.534C268.858 18.505 269.365 19.787 269.365 21.379V31.798H266.667ZM34.416 31.798L34.168 29.534C33.692 30.32 33.072 30.93 32.307 31.364C31.563 31.777 30.591 31.984 29.392 31.984C28.276 31.984 27.325 31.808 26.539 31.457C25.754 31.085 25.144 30.578 24.71 29.937C24.296 29.276 24.089 28.511 24.089 27.643C24.089 26.34 24.575 25.265 25.547 24.418C26.519 23.55 27.924 23.012 29.764 22.805L34.168 22.309V21.1C34.168 20.438 33.899 19.88 33.361 19.425C32.824 18.95 32.049 18.712 31.036 18.712C30.085 18.712 29.278 18.939 28.617 19.394C27.955 19.828 27.511 20.48 27.283 21.348L24.679 20.418C25.071 19.053 25.836 17.988 26.973 17.224C28.131 16.459 29.526 16.076 31.16 16.076C33.103 16.076 34.581 16.562 35.594 17.534C36.607 18.505 37.113 19.787 37.113 21.379V31.798H34.416ZM2.233 16.293V11.952H5.179V16.293H9.055V18.898H5.179V26.527C5.179 27.477 5.365 28.149 5.737 28.542C6.13 28.935 6.615 29.162 7.194 29.224C7.794 29.266 8.414 29.245 9.055 29.162V31.674C8.207 31.86 7.37 31.912 6.543 31.829C5.737 31.767 5.003 31.54 4.341 31.147C3.7 30.754 3.184 30.186 2.791 29.441C2.419 28.677 2.233 27.705 2.233 26.527V18.898H0V16.293H2.233ZM92.535 11.952L94.618 9.869L84.749 0L74.88 9.869L76.963 11.952L83.283 5.632V31.798H86.229V5.646L92.535 11.952ZM13.168 16.293H15.834L16.02 18.371C16.455 17.833 16.951 17.389 17.509 17.038C18.088 16.665 18.708 16.407 19.369 16.262C20.052 16.118 20.755 16.128 21.478 16.293V19.053C20.796 18.888 20.134 18.867 19.493 18.991C18.853 19.115 18.274 19.384 17.757 19.797C17.261 20.19 16.858 20.717 16.548 21.379C16.237 22.04 16.082 22.836 16.082 23.767V31.798H13.168V16.293ZM41.226 16.293H43.893L44.079 18.092C44.575 17.451 45.206 16.955 45.971 16.603C46.736 16.252 47.583 16.076 48.513 16.076C49.713 16.076 50.746 16.335 51.614 16.851C52.503 17.348 53.186 18.092 53.661 19.084C54.157 20.076 54.405 21.317 54.405 22.805V31.798H51.49V23.177C51.49 21.73 51.18 20.635 50.56 19.89C49.961 19.126 49.082 18.743 47.924 18.743C46.725 18.743 45.795 19.136 45.133 19.921C44.472 20.686 44.141 21.823 44.141 23.332V31.798H41.226V16.293ZM196.842 16.293H199.788V31.798H196.842V16.293ZM223.545 16.293H226.211L226.397 18.092C226.894 17.451 227.524 16.955 228.289 16.603C229.054 16.252 229.901 16.076 230.832 16.076C232.031 16.076 233.064 16.335 233.933 16.851C234.822 17.348 235.504 18.092 235.979 19.084C236.475 20.076 236.724 21.317 236.724 22.805V31.798H233.809V23.177C233.809 21.73 233.499 20.635 232.878 19.89C232.279 19.126 231.4 18.743 230.243 18.743C229.044 18.743 228.113 19.136 227.452 19.921C226.79 20.686 226.459 21.823 226.459 23.332V31.798H223.545V16.293ZM249.773 9.471H252.688V31.798H249.773V9.471ZM94.618 31.798H91.672V16.293H94.618V31.798ZM77.826 31.798H74.88V16.293H77.826V31.798ZM121.526 16.293H118.86V31.798H121.775V23.332C121.775 21.823 122.105 20.686 122.767 19.921C123.428 19.136 124.359 18.743 125.558 18.743C126.715 18.743 127.594 19.126 128.193 19.89C128.814 20.635 129.124 21.73 129.124 23.177V31.798H132.039V22.805C132.039 21.317 131.791 20.076 131.294 19.084C130.819 18.092 130.137 17.348 129.248 16.852C128.38 16.335 127.346 16.076 126.147 16.076C125.217 16.076 124.369 16.252 123.604 16.603C122.839 16.955 122.209 17.451 121.712 18.092L121.526 16.293ZM34.168 24.697L29.919 25.224C29.01 25.348 28.327 25.606 27.873 25.999C27.418 26.371 27.19 26.868 27.19 27.488C27.19 28.067 27.407 28.552 27.842 28.945C28.296 29.317 28.927 29.503 29.733 29.503C30.725 29.503 31.552 29.317 32.214 28.945C32.875 28.573 33.361 28.056 33.671 27.395C34.002 26.712 34.168 25.927 34.168 25.038V24.697ZM266.419 24.697L262.171 25.224C261.261 25.348 260.579 25.606 260.124 25.999C259.669 26.371 259.442 26.868 259.442 27.488C259.442 28.067 259.659 28.552 260.093 28.945C260.548 29.317 261.178 29.503 261.985 29.503C262.977 29.503 263.804 29.317 264.465 28.945C265.127 28.573 265.613 28.056 265.923 27.395C266.254 26.712 266.419 25.927 266.419 25.038V24.697ZM206.985 24.046C206.985 25.638 207.398 26.919 208.225 27.891C209.073 28.862 210.2 29.348 211.605 29.348C212.432 29.348 213.187 29.142 213.869 28.728C214.551 28.294 215.089 27.684 215.482 26.899C215.895 26.092 216.102 25.141 216.102 24.046C216.102 22.929 215.895 21.978 215.482 21.193C215.089 20.407 214.541 19.808 213.838 19.394C213.156 18.96 212.412 18.743 211.605 18.743C210.2 18.743 209.073 19.229 208.225 20.201C207.398 21.172 206.985 22.454 206.985 24.046ZM147.29 24.046C147.29 25.638 147.704 26.919 148.531 27.891C149.358 28.863 150.464 29.348 151.849 29.348C152.696 29.348 153.461 29.142 154.144 28.728C154.826 28.315 155.374 27.715 155.787 26.93C156.201 26.123 156.407 25.162 156.407 24.046C156.407 22.929 156.201 21.978 155.787 21.193C155.374 20.407 154.826 19.808 154.144 19.394C153.461 18.96 152.696 18.743 151.849 18.743C150.484 18.743 149.378 19.229 148.531 20.201C147.704 21.172 147.29 22.454 147.29 24.046ZM285.671 24.046C285.671 22.454 285.247 21.172 284.4 20.201C283.573 19.229 282.487 18.743 281.144 18.743C280.275 18.743 279.5 18.96 278.818 19.394C278.136 19.808 277.588 20.407 277.174 21.193C276.761 21.978 276.554 22.929 276.554 24.046C276.554 25.162 276.761 26.123 277.174 26.93C277.588 27.715 278.136 28.315 278.818 28.728C279.5 29.142 280.275 29.348 281.144 29.348C282.487 29.348 283.573 28.863 284.4 27.891C285.247 26.919 285.671 25.638 285.671 24.046ZM106.926 29.348C107.753 29.348 108.528 29.162 109.251 28.79C109.975 28.397 110.564 27.808 111.019 27.023C111.494 26.237 111.732 25.234 111.732 24.015C111.732 22.816 111.505 21.834 111.05 21.069C110.616 20.283 110.037 19.704 109.313 19.332C108.59 18.94 107.815 18.743 106.988 18.743C106.181 18.743 105.427 18.94 104.724 19.332C104.042 19.704 103.484 20.283 103.049 21.069C102.615 21.854 102.398 22.857 102.398 24.077C102.398 25.276 102.605 26.268 103.018 27.054C103.453 27.819 104.011 28.397 104.693 28.79C105.375 29.162 106.119 29.348 106.926 29.348ZM174.548 22.65C174.548 21.906 174.362 21.234 173.99 20.635C173.618 20.035 173.112 19.57 172.471 19.239C171.85 18.888 171.148 18.712 170.362 18.712C169.659 18.712 169.008 18.888 168.408 19.239C167.83 19.57 167.333 20.035 166.92 20.635C166.527 21.214 166.279 21.885 166.176 22.65H174.548ZM198.331 13.565C197.773 13.565 197.308 13.379 196.935 13.006C196.563 12.634 196.377 12.179 196.377 11.642C196.377 11.084 196.563 10.619 196.935 10.247C197.308 9.854 197.773 9.657 198.331 9.657C198.868 9.657 199.323 9.854 199.695 10.247C200.088 10.619 200.285 11.084 200.285 11.642C200.285 12.179 200.088 12.634 199.695 13.006C199.323 13.379 198.868 13.565 198.331 13.565Z"/>
</svg>
